<svg width="16" height="16" viewBox="0 0 16 16" fill="none" xmlns="http://www.w3.org/2000/svg">
<path fill-rule="evenodd" clip-rule="evenodd" d="M3.41659 1.33325C3.41659 0.642896 3.97623 0.083252 4.66659 0.083252H11.3333C12.0236 0.083252 12.5833 0.642896 12.5833 1.33325V4.24992H14.6666C15.3569 4.24992 15.9166 4.80956 15.9166 5.49992V11.3333C15.9166 12.0236 15.3569 12.5833 14.6666 12.5833H12.5833V15.4999C12.5833 15.73 12.3967 15.9166 12.1666 15.9166H3.83325C3.60313 15.9166 3.41659 15.73 3.41659 15.4999V12.5833H1.33325C0.642897 12.5833 0.083252 12.0236 0.083252 11.3333V5.49992C0.083252 4.80956 0.642896 4.24992 1.33325 4.24992H3.41659V1.33325ZM4.24992 4.24992H11.7499V1.33325C11.7499 1.10313 11.5634 0.916585 11.3333 0.916585H4.66659C4.43647 0.916585 4.24992 1.10313 4.24992 1.33325V4.24992ZM3.41659 11.7499V11.3333C3.41659 10.6429 3.97623 10.0833 4.66659 10.0833H11.3333C12.0236 10.0833 12.5833 10.6429 12.5833 11.3333V11.7499H14.6666C14.8967 11.7499 15.0833 11.5634 15.0833 11.3333V7.58325H0.916585V11.3333C0.916585 11.5634 1.10313 11.7499 1.33325 11.7499H3.41659ZM0.916585 6.74992H15.0833V5.49992C15.0833 5.2698 14.8967 5.08325 14.6666 5.08325H1.33325C1.10313 5.08325 0.916585 5.2698 0.916585 5.49992V6.74992ZM4.66659 10.9166C4.43647 10.9166 4.24992 11.1031 4.24992 11.3333V15.0833H11.7499V11.3333C11.7499 11.1031 11.5634 10.9166 11.3333 10.9166H4.66659Z" fill="white"/>
</svg>
